<svg xmlns="http://www.w3.org/2000/svg" width="47.554" height="43.653" viewBox="0 0 47.554 43.653">
  <g id="car-accident" transform="translate(0 -21)">
    <path id="Path_6183" data-name="Path 6183" d="M46.161,171H40.224a6.928,6.928,0,0,0-6.23,3.851l-3.647,7.295H27.492a5.093,5.093,0,0,0-3.715,1.608,5.093,5.093,0,0,0-3.715-1.608H17.208l-3.647-7.295A6.928,6.928,0,0,0,7.33,171H1.393A1.393,1.393,0,0,0,0,172.393v21.362a1.393,1.393,0,0,0,1.393,1.393H8.472a6.035,6.035,0,0,0,12.035,0h6.541a6.035,6.035,0,0,0,12.035,0h7.078a1.393,1.393,0,0,0,1.393-1.393V172.393A1.393,1.393,0,0,0,46.161,171Zm-9.675,5.1a4.157,4.157,0,0,1,3.738-2.31h4.543v8.359H33.461Zm-33.7-2.31H7.33a4.157,4.157,0,0,1,3.738,2.31l3.024,6.049H2.786Zm11.7,24.148a3.251,3.251,0,1,1,3.251-3.251A3.254,3.254,0,0,1,14.489,197.935Zm0-9.288a6.046,6.046,0,0,0-5.572,3.715H2.786v-7.43H20.062a2.325,2.325,0,0,1,2.322,2.322v5.108H20.061A6.046,6.046,0,0,0,14.489,188.647Zm18.576,9.288a3.251,3.251,0,1,1,3.251-3.251A3.254,3.254,0,0,1,33.065,197.935Zm11.7-5.573H38.637a6.036,6.036,0,0,0-11.144,0H25.17v-5.108a2.325,2.325,0,0,1,2.322-2.322H44.767Z" transform="translate(0 -136.068)" fill="#fff"/>
    <path id="Path_6184" data-name="Path 6184" d="M170.873,31.408l3.808,2.72-1.715,6.288a1.393,1.393,0,0,0,2.18,1.481l10.508-7.881a1.393,1.393,0,0,0-.026-2.248l-3.808-2.72,1.715-6.288a1.393,1.393,0,0,0-2.18-1.481l-10.508,7.881a1.393,1.393,0,0,0,.026,2.248Zm8.905-5.464-.9,3.307a1.393,1.393,0,0,0,.534,1.5l3.048,2.177-5.737,4.3.9-3.307a1.393,1.393,0,0,0-.534-1.5l-3.048-2.177Z" transform="translate(-154.474 0)" fill="#fff"/>
  </g>
</svg>
